<svg id="_x33_0" enable-background="new 0 0 64 64" height="512" viewBox="0 0 64 64" width="512" xmlns="http://www.w3.org/2000/svg"><g><g><g><path d="m41.23 45.91c-.35.06-.7.09-1.06.09h-2.44c-1.25 0-2.46-.34-3.49-.96l.39-1.55c.45-1.79 1.14-3.51 2.04-5.11.46-.81.97-1.59 1.54-2.33l.1.52c.4 1.99 2.16 3.43 4.19 3.43.97 0 1.91-.33 2.67-.94l3.13-2.5c1.1 1.62 1.7 3.55 1.7 5.54 0 .3-.01.61-.04.9-.22 2.38-1.27 4.51-2.86 6.1-1.21 1.21-2.73 2.11-4.43 2.56l-1.44-5.74z" fill="#ff826e"/></g><g><path d="m50 43v19h-16v-10.44-.01c1.04.3 2.13.45 3.24.45h2.86c.89 0 1.75-.12 2.57-.34 1.7-.45 3.22-1.35 4.43-2.56 1.59-1.59 2.64-3.72 2.86-6.1z" fill="#ff826e"/></g><g><path d="m48.3 36.56-3.13 2.5c-.76.61-1.7.94-2.67.94-2.03 0-3.79-1.44-4.19-3.43l-.1-.52c.54-.72 1.14-1.4 1.79-2.05l.4.8c.37.74 1.12 1.2 1.94 1.2.43 0 .85-.13 1.21-.36l2.45-1.64 1.1 1.1c.45.45.85.94 1.2 1.46z" fill="#fc6e51"/></g><g><path d="m37.09 11.31v.01c-1.46.66-2.54 1.96-2.93 3.51l-.7-.14c-2.01-.4-3.46-2.17-3.46-4.22 0-.31.03-.62.1-.93l.3-1.32c.93-4.22 4.67-7.22 8.99-7.22 1.45 0 2.86.34 4.12.98 1.26.63 2.38 1.55 3.25 2.71l.24.31 4.37 2.91c2.89 1.93 4.63 5.18 4.63 8.66 0 1.97-.56 3.85-1.56 5.47-.99 1.61-2.43 2.96-4.19 3.84l-4.25 2.12v-6h1c.83 0 1.58-.34 2.12-.88s.88-1.29.88-2.12c0-1.66-1.34-3-3-3h-1c0-2.21-1.79-4-4-4h-3c-.73 0-1.39-.26-1.91-.69z" fill="#656d78"/></g><g><path d="m26.01 44.32c.4 1.04.94 2 1.6 2.86l-.61 1.82-1.68-1.12c-.73-.48-1.72-.29-2.2.44l-.65.97c-.29.44-.79.71-1.32.71-.69 0-1.3-.44-1.51-1.09l-.17-.51c-.27-.79-1.09-1.24-1.9-1.04l-2.57.64 4.45-19.59c.16-.71.55-1.31 1.09-1.73.53-.43 1.2-.68 1.93-.68 1.47 0 2.74 1.04 3.03 2.48l.33 1.65v.01l-.88-.14c-1.63 0-2.95 1.32-2.95 2.95v.5c0 .36.07.73.2 1.07z" fill="#ffeaa7"/></g><g><path d="m24.95 30 .88.14c.86.26 1.57.91 1.89 1.78l3.62 9.65c.56 1.48 1.6 2.69 2.9 3.47 1.03.62 2.24.96 3.49.96h2.44c.36 0 .71-.03 1.06-.09v.01l1.44 5.74c-.82.22-1.68.34-2.57.34h-2.86c-1.11 0-2.2-.15-3.24-.45-2.56-.71-4.81-2.25-6.39-4.37-.66-.86-1.2-1.82-1.6-2.86l-3.81-9.8c-.13-.34-.2-.71-.2-1.07v-.5c0-1.63 1.32-2.95 2.95-2.95z" fill="#f0d0b4"/></g><g><path d="m40 29.76-1.44.24c-2.33 0-4.25-1.75-4.53-4-.02-.18-.03-.37-.03-.56v-1.44h-.59c-.78 0-1.41-.63-1.41-1.41 0-.38.15-.74.41-1l1-1c.38-.38.59-.89.59-1.42v-3.05c0-.44.06-.87.16-1.29.39-1.55 1.47-2.85 2.93-3.51v-.01c.52.43 1.18.69 1.91.69h3c2.21 0 4 1.79 4 4h1c1.66 0 3 1.34 3 3 0 .83-.34 1.58-.88 2.12s-1.29.88-2.12.88h-1v6 6l-2.45 1.64c-.36.23-.78.36-1.21.36-.82 0-1.57-.46-1.94-1.2l-.4-.8v-4.23z" fill="#f0d0b4"/></g></g><g><path d="m40.707 19.293-1.293-1.293 1.293-1.293-1.414-1.414-2.707 2.707 2.707 2.707z"/><path d="m38.382 22h2.236v2h-2.236z" transform="matrix(.447 -.894 .894 .447 1.263 48.044)"/><path d="m41.382 22h2.236v2h-2.236z" transform="matrix(.447 -.894 .894 .447 2.922 50.727)"/><path d="m32.36 3.5h7.28v2h-7.28z" transform="matrix(.275 -.962 .962 .275 21.777 37.876)"/><path d="m36.36 3.5h7.28v2h-7.28z" transform="matrix(.275 -.962 .962 .275 24.677 41.722)"/><path d="m40.36 3.5h7.28v2h-7.28z" transform="matrix(.275 -.962 .962 .275 27.577 45.568)"/><path d="m50.695 26.771c3.889-1.945 6.305-5.854 6.305-10.202 0-3.822-1.899-7.37-5.079-9.49l-4.366-2.911-1.109 1.664 4.366 2.911c2.622 1.748 4.188 4.674 4.188 7.826 0 3.585-1.992 6.809-5.199 8.413l-2.801 1.4v-3.382c2.206 0 4-1.794 4-4s-1.794-4-4-4h-.101c-.464-2.279-2.485-4-4.899-4h-3c-1.103 0-2-.897-2-2h-2c0 .756.223 1.457.589 2.061-.919.672-1.636 1.572-2.078 2.609-1.461-.364-2.511-1.679-2.511-3.198 0-.241.026-.482.079-.716l1.897-8.539-1.952-.434-1.897 8.538c-.085.376-.127.763-.127 1.151 0 2.44 1.688 4.554 4.038 5.134-.015.172-.038.343-.038.517v3.048c0 .267-.104.519-.293.708l-1 1c-.456.455-.707 1.062-.707 1.707 0 1.19.865 2.182 2 2.378v.476c0 3.065 2.494 5.56 5.56 5.56.148 0 .294-.016.44-.027v2.619c-2.591 2.694-4.434 6.022-5.342 9.654l-.015.06c-.59-.581-1.067-1.284-1.368-2.087l-3.62-9.653c-.358-.955-1.071-1.715-1.952-2.152l-.225-1.125c-.381-1.906-2.068-3.289-4.011-3.289-1.922 0-3.563 1.309-3.989 3.184l-4.813 21.181 4.147-1.037c.299-.074.608.096.706.388l.171.512c.353 1.06 1.341 1.772 2.459 1.772.868 0 1.675-.432 2.157-1.154l.644-.966c.088-.132.222-.221.377-.252.155-.03.313 0 .445.088l2.764 1.843.463-1.389c1.401 1.412 3.108 2.482 5.002 3.126v10.704h18v-20h-.046c.025-.297.046-.596.046-.899 0-2.912-1.134-5.648-3.192-7.707l-.808-.808v-4.968zm-24.23 20.671-.585-.391c-1.188-.793-2.803-.47-3.595.719l-.644.966c-.251.378-.912.29-1.055-.142l-.171-.512c-.426-1.276-1.781-2.021-3.088-1.695l-.991.248 4.093-18.008c.217-.958 1.055-1.627 2.038-1.627.993 0 1.855.707 2.05 1.681l.071.356c-2.007.187-3.588 1.861-3.588 3.916v.493c0 .493.09.975.269 1.433l3.813 9.803c.374.961.85 1.856 1.412 2.677zm.48-3.484-3.813-9.804c-.088-.226-.132-.465-.132-.708v-.493c0-1.077.876-1.953 1.953-1.953.81 0 1.545.509 1.829 1.268l3.62 9.653c1.14 3.038 4.085 5.08 7.33 5.08h2.439c.099 0 .196-.011.294-.014l.976 3.902c-.438.066-.884.111-1.34.111h-2.86c-4.591 0-8.632-2.764-10.296-7.042zm22.055 17.042h-14v-8.196c.731.125 1.478.196 2.24.196h2.86c3.675 0 6.924-1.833 8.899-4.628v12.628zm-.973-22.941c.632 1.237.973 2.612.973 4.042 0 3.751-2.336 6.961-5.627 8.268l-.926-3.703c1.218-.368 2.334-1.033 3.26-1.958l-1.414-1.414c-1.101 1.1-2.564 1.706-4.122 1.706h-2.439c-.817 0-1.603-.186-2.325-.504l.191-.766c.484-1.935 1.27-3.77 2.306-5.454.911 1.637 2.648 2.724 4.597 2.724 1.192 0 2.362-.41 3.293-1.155zm-8.744-1.745c.166-.207.328-.416.502-.616.174.24.378.45.607.629l-.526 1.316c-.272-.372-.477-.799-.571-1.273zm2.256 2.53.739-1.849c.021 0 .042.004.063.004.22 0 .435-.03.647-.075l1.02 1.7c-.463.242-.98.376-1.507.376-.334 0-.655-.06-.962-.156zm3.238-2.827 1.096-.731.521.521c.185.185.358.38.524.578l-1.297 1.038zm.223-15.017v12.465l-2.007 1.338c-.566.376-1.395.157-1.699-.451l-.294-.588v-3.336c.87-.426 1.63-1.07 2.186-1.904l.646-.97-1.664-1.109-.646.97c-.662.993-1.77 1.585-2.962 1.585-1.401 0-2.604-.821-3.184-2h3.624v-2h-4v-2h-1.586c-.228 0-.414-.186-.414-.414 0-.109.044-.216.121-.293l1-1c.567-.566.879-1.32.879-2.122v-3.048c0-1.501.794-2.88 2.055-3.65.578.326 1.235.527 1.945.527h3c1.654 0 3 1.346 3 3v1h2c1.103 0 2 .897 2 2s-.897 2-2 2z"/><path d="m11.576 24h9.849v2h-9.849z" transform="matrix(.914 -.406 .406 .914 -8.731 8.856)"/><path d="m28 25h2v2h-2z"/><path d="m16 16.382h2v2.236h-2z" transform="matrix(.447 -.894 .894 .447 -6.255 24.879)"/><path d="m21 17.764h2v4.472h-2z" transform="matrix(.447 -.894 .894 .447 -5.727 30.733)"/><path d="m6.882 27.5h2.236v2h-2.236z" transform="matrix(.894 -.447 .447 .894 -11.901 6.587)"/><path d="m9 12.382h2v2.236h-2z" transform="matrix(.447 -.894 .894 .447 -6.547 16.407)"/><path d="m15 6.586h2v2.828h-2z" transform="matrix(.707 -.707 .707 .707 -.971 13.657)"/><path d="m22 9.343h2v11.314h-2z" transform="matrix(.707 -.707 .707 .707 -3.87 20.657)"/><path d="m21 5h2v2h-2z"/><path d="m25 11h2v2h-2z"/></g></g></svg>